<?xml version="1.0" encoding="iso-8859-1"?>
<!-- Generator: Adobe Illustrator 30.2.1, SVG Export Plug-In . SVG Version: 9.03 Build 0)  -->
<svg version="1.1" id="_&#x56FE;&#x5C42;_1" xmlns="http://www.w3.org/2000/svg" xmlns:xlink="http://www.w3.org/1999/xlink"
	 x="0px" y="0px" viewBox="0 0 4503.45 881.63" style="enable-background:new 0 0 4503.45 881.63;" xml:space="preserve">
<g>
	<path style="fill:#084CAF;" d="M1355.3,211.96H72.71C85.09,156.87,115,108.68,162.43,67.41c51.58-44.93,109.18-67.4,172.74-67.4
		h1052.78L1355.3,211.96L1355.3,211.96z M1281.91,661.74l-33.88,219.89H195.97c-63.76,0-114.41-22.59-151.83-67.8
		C6.67,768.66-6.94,713.81,3.3,649.28l38.79-244.37h330.07L331.7,661.73h950.2L1281.91,661.74z"/>
	<path style="fill:#084CAF;" d="M1355.3,211.96H72.71C85.09,156.87,115,108.68,162.43,67.41c51.58-44.93,109.18-67.4,172.74-67.4
		h1052.78L1355.3,211.96L1355.3,211.96z"/>
	<polygon style="fill:#084CAF;" points="2399.83,0 2613.02,211.96 2191.03,211.96 1976.7,0 	"/>
	<polygon style="fill:#084CAF;" points="3083.63,211.96 2649.2,211.96 2863.53,0 3311.15,0 	"/>
	<polygon style="fill:#084CAF;" points="3329.98,881.63 2826.7,404.92 2409.5,404.92 1830.05,881.63 2071.78,881.63 2266.48,881.63 
		2272.44,881.63 2606.06,606.61 2889.86,881.63 	"/>
	<g>
		<polygon style="fill:#084CAF;" points="3526.41,2.42 3545.1,21.11 4113.66,21.11 4094.97,2.42 		"/>
		<polygon style="fill:#084CAF;" points="3583.43,59.44 3602.12,78.13 4170.68,78.13 4151.99,59.44 		"/>
		<polygon style="fill:#084CAF;" points="3640.46,116.46 3659.14,135.15 4227.7,135.15 4209.01,116.46 		"/>
		<polygon style="fill:#084CAF;" points="3697.47,173.48 3716.16,192.17 4284.72,192.17 4266.03,173.48 		"/>
		<polygon style="fill:#084CAF;" points="3754.49,230.5 3773.18,249.19 4341.74,249.19 4323.05,230.5 		"/>
		<polygon style="fill:#084CAF;" points="3811.51,287.52 3830.2,306.21 4398.76,306.21 4380.07,287.52 		"/>
		<polygon style="fill:#084CAF;" points="3868.53,344.54 3887.22,363.23 4455.78,363.23 4437.09,344.54 		"/>
		<polygon style="fill:#084CAF;" points="4494.1,401.55 3925.55,401.55 3934.89,410.9 3925.55,420.24 4494.1,420.24 4503.45,410.9 
					"/>
		<polygon style="fill:#084CAF;" points="3887.22,458.57 3868.53,477.26 4437.09,477.26 4455.78,458.57 		"/>
		<polygon style="fill:#084CAF;" points="3830.19,515.6 3811.5,534.29 4380.06,534.29 4398.75,515.6 		"/>
		<polygon style="fill:#084CAF;" points="3773.18,572.61 3754.49,591.3 4323.04,591.3 4341.73,572.61 		"/>
		<polygon style="fill:#084CAF;" points="3716.16,629.63 3697.47,648.32 4266.02,648.32 4284.71,629.63 		"/>
		<polygon style="fill:#084CAF;" points="3659.14,686.65 3640.45,705.34 4209.01,705.34 4227.7,686.65 		"/>
		<polygon style="fill:#084CAF;" points="3602.12,743.67 3583.43,762.36 4151.99,762.36 4170.68,743.67 		"/>
		<polygon style="fill:#084CAF;" points="3545.1,800.69 3526.41,819.38 4094.97,819.38 4113.66,800.69 		"/>
		<polygon style="fill:#084CAF;" points="3488.08,857.71 3469.39,876.4 4037.95,876.4 4056.64,857.71 		"/>
	</g>
</g>
<path style="fill:#72CC99;" d="M1835.06,211.96H1495.7L1528.24,0h339.1L1835.06,211.96z"/>
<path style="fill:#72CC99;" d="M1392.87,881.63l73.2-476.72h339.6l-72.61,476.72H1392.87z"/>
</svg>
