<?xml version="1.0" encoding="UTF-8"?>
<svg id="_图层_1" data-name="图层 1" xmlns="http://www.w3.org/2000/svg" viewBox="0 0 6149.65 2869.43">
  <defs>
    <style>
      .cls-1 {
        fill: #72cc99;
      }

      .cls-2 {
        fill: #084caf;
      }
    </style>
  </defs>
  <g>
    <path class="cls-2" d="M2214.96,1219.04H932.37c12.38-55.09,42.29-103.28,89.72-144.55,51.58-44.93,109.18-67.4,172.74-67.4h1052.78l-32.65,211.96Zm-73.39,449.78l-33.88,219.89H1055.63c-63.76,0-114.41-22.59-151.83-67.8-37.47-45.17-51.08-100.02-40.84-164.55l38.79-244.37h330.07l-40.46,256.82h950.2Z"/>
    <path class="cls-2" d="M2214.96,1219.04H932.37c12.38-55.09,42.29-103.28,89.72-144.55,51.58-44.93,109.18-67.4,172.74-67.4h1052.78l-32.65,211.96Z"/>
    <polygon class="cls-2" points="3259.49 1007.08 3472.68 1219.04 3050.69 1219.04 2836.36 1007.08 3259.49 1007.08"/>
    <polygon class="cls-2" points="3943.29 1219.04 3508.86 1219.04 3723.19 1007.08 4170.81 1007.08 3943.29 1219.04"/>
    <polygon class="cls-2" points="4189.64 1888.71 3686.36 1412 3269.16 1412 2689.71 1888.71 2931.44 1888.71 3126.14 1888.71 3132.1 1888.71 3465.72 1613.69 3749.52 1888.71 4189.64 1888.71"/>
    <g>
      <polygon class="cls-2" points="4386.07 1009.5 4404.76 1028.19 4973.32 1028.19 4954.63 1009.5 4386.07 1009.5"/>
      <polygon class="cls-2" points="4443.09 1066.52 4461.78 1085.21 5030.34 1085.21 5011.65 1066.52 4443.09 1066.52"/>
      <polygon class="cls-2" points="4500.12 1123.54 4518.8 1142.23 5087.36 1142.23 5068.67 1123.54 4500.12 1123.54"/>
      <polygon class="cls-2" points="4557.13 1180.56 4575.82 1199.25 5144.38 1199.25 5125.69 1180.56 4557.13 1180.56"/>
      <polygon class="cls-2" points="4614.15 1237.58 4632.84 1256.27 5201.4 1256.27 5182.71 1237.58 4614.15 1237.58"/>
      <polygon class="cls-2" points="4671.17 1294.6 4689.86 1313.29 5258.42 1313.29 5239.73 1294.6 4671.17 1294.6"/>
      <polygon class="cls-2" points="4728.19 1351.62 4746.88 1370.31 5315.44 1370.31 5296.75 1351.62 4728.19 1351.62"/>
      <polygon class="cls-2" points="5353.76 1408.63 4785.21 1408.63 4794.55 1417.98 4785.21 1427.32 5353.76 1427.32 5363.11 1417.98 5353.76 1408.63"/>
      <polygon class="cls-2" points="4746.88 1465.65 4728.19 1484.34 5296.75 1484.34 5315.44 1465.65 4746.88 1465.65"/>
      <polygon class="cls-2" points="4689.85 1522.68 4671.16 1541.37 5239.72 1541.37 5258.41 1522.68 4689.85 1522.68"/>
      <polygon class="cls-2" points="4632.84 1579.69 4614.15 1598.38 5182.7 1598.38 5201.39 1579.69 4632.84 1579.69"/>
      <polygon class="cls-2" points="4575.82 1636.71 4557.13 1655.4 5125.68 1655.4 5144.37 1636.71 4575.82 1636.71"/>
      <polygon class="cls-2" points="4518.8 1693.73 4500.11 1712.42 5068.67 1712.42 5087.36 1693.73 4518.8 1693.73"/>
      <polygon class="cls-2" points="4461.78 1750.75 4443.09 1769.44 5011.65 1769.44 5030.34 1750.75 4461.78 1750.75"/>
      <polygon class="cls-2" points="4404.76 1807.77 4386.07 1826.46 4954.63 1826.46 4973.32 1807.77 4404.76 1807.77"/>
      <polygon class="cls-2" points="4347.74 1864.79 4329.05 1883.48 4897.61 1883.48 4916.3 1864.79 4347.74 1864.79"/>
    </g>
  </g>
  <path class="cls-1" d="M2694.72,1219.04h-339.36l32.54-211.96h339.1l-32.28,211.96Z"/>
  <path class="cls-1" d="M2252.53,1888.71l73.2-476.72h339.6l-72.61,476.72h-340.19Z"/>
</svg>