<?xml version="1.0" encoding="iso-8859-1"?>
<!-- Generator: Adobe Illustrator 30.2.1, SVG Export Plug-In . SVG Version: 9.03 Build 0)  -->
<svg version="1.1" id="Layer_1" xmlns="http://www.w3.org/2000/svg" xmlns:xlink="http://www.w3.org/1999/xlink" x="0px" y="0px"
	 viewBox="0 0 264.88 74.77" style="enable-background:new 0 0 264.88 74.77;" xml:space="preserve">
<g>
	<path style="fill:#77787B;" d="M98.25,51.59c0,1.11,0.39,2.05,1.16,2.82s2.16,1.67,4.17,2.7c2.69,1.4,4.62,2.79,5.79,4.2
		c1.17,1.4,1.75,3.02,1.75,4.85c0,2.69-0.97,4.8-2.92,6.32c-1.94,1.52-4.43,2.28-7.46,2.28c-1.73,0-3.32-0.18-4.76-0.53
		s-2.52-0.76-3.26-1.23v-5.76c0.93,0.86,2.12,1.57,3.58,2.14c1.46,0.56,2.89,0.85,4.3,0.85c1.54,0,2.76-0.3,3.66-0.89
		c0.9-0.59,1.35-1.48,1.35-2.66c0-1.04-0.43-1.99-1.3-2.84c-0.87-0.85-2.46-1.89-4.79-3.1c-2.28-1.18-3.99-2.47-5.11-3.86
		s-1.68-3.03-1.68-4.92c0-2.5,0.97-4.54,2.92-6.14s4.43-2.4,7.46-2.4c1.34,0,2.64,0.12,3.9,0.37s2.19,0.51,2.78,0.79v5.52
		c-0.83-0.66-1.84-1.18-3.01-1.56c-1.18-0.38-2.37-0.57-3.58-0.57c-1.48,0-2.68,0.33-3.59,0.99C98.71,49.61,98.25,50.49,98.25,51.59
		z M133.92,52.5v21.74h-5.16v-2.85h-0.08c-0.68,0.99-1.58,1.76-2.72,2.32c-1.13,0.56-2.41,0.83-3.82,0.83
		c-2.52,0-4.44-0.72-5.76-2.15c-1.32-1.43-1.98-3.65-1.98-6.67V52.51h5.18v12.6c0,1.83,0.36,3.21,1.09,4.13s1.82,1.38,3.29,1.38
		c1.45,0,2.61-0.51,3.49-1.53c0.87-1.02,1.31-2.36,1.31-4.01V52.5L133.92,52.5L133.92,52.5z M149.31,52.14
		c0.41,0,0.78,0.03,1.1,0.08s0.6,0.13,0.82,0.21v5.18c-0.27-0.2-0.66-0.38-1.17-0.56s-1.14-0.26-1.87-0.26
		c-1.25,0-2.32,0.53-3.18,1.59c-0.87,1.06-1.3,2.69-1.3,4.88v10.98h-5.12V52.51h5.12v3.42h0.08c0.47-1.18,1.17-2.11,2.11-2.78
		C146.85,52.48,147.98,52.14,149.31,52.14z M164.41,41.68c0.62,0,1.17,0.03,1.65,0.1c0.48,0.06,0.9,0.16,1.27,0.29v4.42
		c-0.17-0.1-0.47-0.22-0.89-0.36s-0.91-0.21-1.46-0.21c-1.07,0-1.9,0.33-2.47,1s-0.87,1.66-0.87,2.97v2.62h4.84v4.19h-4.84v17.54
		h-5.18V56.69h-3.64V52.5h3.64v-3.02c0-2.28,0.74-4.15,2.23-5.61S162.08,41.68,164.41,41.68z M186.13,60.62c0,3.58,0,6.4,0.01,8.47
		s0.12,3.78,0.33,5.15h-5.1l-0.25-2.33h-0.08c-0.65,0.87-1.5,1.54-2.55,2s-2.37,0.69-3.96,0.69c-1.92,0-3.52-0.58-4.81-1.74
		s-1.93-2.73-1.93-4.7c0-2.11,0.83-3.81,2.48-5.08c1.66-1.28,4.25-2.13,7.79-2.57l3.11-0.38c0-1.44-0.34-2.46-1.02-3.07
		c-0.68-0.61-1.69-0.92-3.04-0.93c-1.47,0-2.85,0.22-4.17,0.67s-2.32,0.97-3.02,1.58v-4.67c0.7-0.38,1.8-0.76,3.28-1.15
		s3.04-0.58,4.67-0.58c2.71,0,4.76,0.75,6.16,2.24C185.43,55.69,186.13,57.83,186.13,60.62z M178.88,63.86
		c-2.26,0.27-3.84,0.7-4.77,1.31c-0.92,0.61-1.38,1.44-1.38,2.5c0,0.9,0.27,1.62,0.81,2.16c0.54,0.54,1.36,0.8,2.46,0.8
		c1.59,0,2.85-0.49,3.78-1.47s1.4-2.21,1.42-3.69v-1.88L178.88,63.86z M201.31,70.52c0.76,0,1.6-0.18,2.52-0.53
		c0.92-0.35,1.76-0.82,2.54-1.4v4.76c-0.82,0.47-1.74,0.82-2.78,1.06c-1.04,0.24-2.17,0.36-3.41,0.36c-3.2,0-5.8-1.01-7.8-3.03
		s-3-4.61-3-7.75c0-3.5,1.02-6.37,3.07-8.64c2.04-2.26,4.94-3.39,8.69-3.39c0.96,0,1.93,0.12,2.91,0.37s1.76,0.53,2.34,0.86v4.91
		c-0.79-0.58-1.6-1.03-2.42-1.34c-0.82-0.32-1.67-0.48-2.53-0.48c-2.02,0-3.64,0.66-4.88,1.97c-1.24,1.31-1.86,3.08-1.86,5.31
		c0,2.2,0.6,3.91,1.79,5.14C197.65,69.9,199.27,70.52,201.31,70.52z M226.83,68.76v4.21c-0.85,0.54-1.95,0.97-3.32,1.3
		s-2.83,0.5-4.38,0.5c-3.31,0-5.89-0.98-7.73-2.94s-2.76-4.69-2.76-8.18c0-3.37,0.98-6.14,2.95-8.32s4.46-3.27,7.47-3.27
		c3,0,5.34,0.92,7.01,2.76s2.51,4.38,2.51,7.62v2.47H213.7c0.23,2.18,0.93,3.71,2.1,4.58c1.18,0.87,2.7,1.3,4.56,1.3
		c1.23,0,2.4-0.19,3.51-0.56C224.98,69.86,225.97,69.37,226.83,68.76z M223.55,61.17c0-1.69-0.39-2.98-1.17-3.87
		s-1.89-1.33-3.31-1.33c-1.23,0-2.33,0.44-3.3,1.32s-1.62,2.17-1.94,3.88H223.55z M126.41,2.24v30.32h-5.26V8.79h-0.08l-9.41,23.76
		h-3.49L98.53,8.79h-0.06v23.76h-4.86V2.24h7.55l8.71,22.47H110l9.2-22.47H126.41z M130.81,4.54c0-0.85,0.31-1.55,0.92-2.12
		s1.34-0.86,2.19-0.86c0.9,0,1.65,0.29,2.24,0.88c0.59,0.58,0.89,1.29,0.89,2.1c0,0.83-0.3,1.53-0.91,2.09s-1.35,0.85-2.22,0.85
		s-1.61-0.29-2.21-0.86C131.11,6.05,130.81,5.36,130.81,4.54z M136.46,10.82v21.73h-5.12V10.82H136.46z M151.97,28.83
		c0.76,0,1.6-0.18,2.52-0.53s1.76-0.82,2.54-1.4v4.76c-0.82,0.47-1.74,0.82-2.78,1.06s-2.17,0.36-3.41,0.36
		c-3.2,0-5.8-1.01-7.8-3.03s-3-4.61-3-7.75c0-3.5,1.02-6.37,3.07-8.64c2.04-2.26,4.94-3.39,8.69-3.39c0.96,0,1.93,0.12,2.91,0.37
		c0.98,0.25,1.76,0.53,2.34,0.86v4.91c-0.79-0.58-1.6-1.03-2.42-1.34c-0.82-0.32-1.67-0.48-2.53-0.48c-2.02,0-3.64,0.66-4.88,1.97
		s-1.86,3.08-1.86,5.31c0,2.2,0.6,3.91,1.79,5.14C148.31,28.22,149.93,28.83,151.97,28.83z M171.59,10.46c0.41,0,0.78,0.03,1.1,0.08
		s0.6,0.13,0.82,0.21v5.18c-0.27-0.2-0.66-0.38-1.17-0.56s-1.14-0.26-1.87-0.26c-1.25,0-2.32,0.53-3.18,1.59s-1.3,2.69-1.3,4.88
		v10.97h-5.12V10.82h5.12v3.42h0.08c0.47-1.18,1.17-2.11,2.11-2.78C169.14,10.8,170.27,10.46,171.59,10.46z M173.8,22
		c0-3.59,1.01-6.44,3.04-8.54s4.85-3.15,8.46-3.15c3.4,0,6.05,1.01,7.96,3.03s2.86,4.75,2.86,8.19c0,3.52-1.02,6.33-3.04,8.41
		c-2.03,2.09-4.79,3.13-8.29,3.13c-3.37,0-6.04-0.99-8.02-2.97C174.79,28.13,173.8,25.43,173.8,22z M179.12,21.84
		c0,2.27,0.51,4,1.54,5.2s2.5,1.8,4.42,1.8c1.86,0,3.28-0.6,4.25-1.8c0.97-1.2,1.46-2.97,1.46-5.33c0-2.34-0.5-4.1-1.51-5.3
		c-1.01-1.19-2.42-1.79-4.24-1.79c-1.87,0-3.33,0.62-4.37,1.87C179.64,17.74,179.12,19.52,179.12,21.84z M203.73,16.53
		c0,0.73,0.23,1.31,0.7,1.72c0.46,0.42,1.49,0.94,3.09,1.57c2.04,0.82,3.48,1.74,4.3,2.76c0.82,1.02,1.24,2.26,1.24,3.71
		c0,2.04-0.79,3.69-2.36,4.93c-1.57,1.24-3.7,1.86-6.37,1.86c-0.9,0-1.9-0.11-2.99-0.33s-2.02-0.5-2.78-0.83v-5.03
		c0.93,0.65,1.93,1.16,3,1.54S203.6,29,204.48,29c1.16,0,2.01-0.16,2.56-0.49s0.82-0.87,0.82-1.63c0-0.71-0.29-1.3-0.86-1.79
		s-1.65-1.05-3.25-1.68c-1.89-0.79-3.23-1.68-4.02-2.66c-0.79-0.99-1.18-2.24-1.18-3.76c0-1.96,0.78-3.57,2.34-4.83
		s3.58-1.89,6.06-1.89c0.76,0,1.61,0.08,2.56,0.25c0.94,0.17,1.73,0.39,2.37,0.66v4.86c-0.68-0.45-1.47-0.84-2.37-1.16
		c-0.9-0.32-1.8-0.49-2.69-0.49c-0.97,0-1.73,0.19-2.27,0.57C204,15.34,203.73,15.87,203.73,16.53z M215.26,22
		c0-3.59,1.01-6.44,3.04-8.54s4.85-3.15,8.46-3.15c3.4,0,6.05,1.01,7.96,3.03s2.86,4.75,2.86,8.19c0,3.52-1.02,6.33-3.04,8.41
		c-2.03,2.09-4.79,3.13-8.29,3.13c-3.37,0-6.04-0.99-8.02-2.97C216.25,28.13,215.26,25.43,215.26,22z M220.58,21.84
		c0,2.27,0.51,4,1.54,5.2s2.5,1.8,4.42,1.8c1.86,0,3.28-0.6,4.25-1.8c0.97-1.2,1.46-2.97,1.46-5.33c0-2.34-0.5-4.1-1.51-5.3
		c-1.01-1.19-2.42-1.79-4.24-1.79c-1.88,0-3.33,0.62-4.37,1.87C221.1,17.74,220.58,19.52,220.58,21.84z M254.56,15.01h-7.62v17.55
		h-5.18V15.01h-3.64v-4.19h3.64V7.8c0-2.28,0.74-4.15,2.23-5.61c1.49-1.46,3.39-2.19,5.72-2.19c0.62,0,1.17,0.03,1.65,0.1
		c0.48,0.06,0.9,0.16,1.27,0.29v4.42c-0.17-0.1-0.47-0.22-0.89-0.36s-0.91-0.21-1.46-0.21c-1.07,0-1.9,0.33-2.47,1
		s-0.87,1.66-0.87,2.97v2.62h7.62V5.94l5.14-1.56v6.45h5.18v4.19h-5.18v10.17c0,1.34,0.24,2.28,0.73,2.83
		c0.49,0.55,1.25,0.82,2.29,0.82c0.3,0,0.65-0.07,1.07-0.21s0.78-0.31,1.09-0.51v4.23c-0.32,0.18-0.86,0.35-1.62,0.51
		s-1.5,0.23-2.23,0.23c-2.16,0-3.77-0.57-4.85-1.72c-1.08-1.15-1.62-2.88-1.62-5.19L254.56,15.01L254.56,15.01z"/>
	<g>
		<rect y="2.24" style="fill:#F26522;" width="34.22" height="34.22"/>
		<rect x="37.78" y="2.24" style="fill:#8DC63F;" width="34.22" height="34.22"/>
		<rect y="40.02" style="fill:#00AEEF;" width="34.22" height="34.22"/>
		<rect x="37.78" y="40.02" style="fill:#FFC20E;" width="34.22" height="34.22"/>
	</g>
</g>
</svg>
