<?xml version="1.0" encoding="iso-8859-1"?>
<!-- Generator: Adobe Illustrator 30.2.1, SVG Export Plug-In . SVG Version: 9.03 Build 0)  -->
<svg version="1.1" id="Logo_00000072247311083911652630000014453541047976282766_"
	 xmlns="http://www.w3.org/2000/svg" xmlns:xlink="http://www.w3.org/1999/xlink" x="0px" y="0px" viewBox="0 0 889.1 300.77"
	 style="enable-background:new 0 0 889.1 300.77;" xml:space="preserve">
<g id="Logo">
	<g>
		<polyline style="fill:#F9B500;" points="248.89,0 248.89,181.74 92.44,0 0,0 0,300.77 92.52,300.74 92.49,119.03 248.94,300.77 
			341.25,150.38 248.94,0 		"/>
		<path style="fill:#69CA00;" d="M779.8,0.01H648.01l-92.34,150.36l92.32,150.38h0.05l-0.05-66.44h156.02
			c65.48,0,85.09-51.4,85.09-96.17V102.8C889.09,43.95,867.8,0.01,779.8,0.01 M802.86,121.35c0,17.83-8.35,38.36-30.04,38.36H648.11
			V74.62h116.8c27.93,0,37.95,11.59,37.95,31.91V121.35z"/>
		<polygon style="fill:#0EAFE0;" points="527.71,0 510.81,0 448.46,99.98 386.13,0 369,0 276.71,0 369.05,150.39 276.71,300.77 
			369.18,300.77 386.13,300.77 448.46,200.79 510.81,300.77 527.88,300.77 620.2,300.75 527.88,150.39 620.2,0 		"/>
	</g>
</g>
<g id="Clear_Space" style="display:none;">
	<g style="display:inline;">
		<g>
			<polygon style="fill:none;stroke:#FF00FF;stroke-miterlimit:10;" points="488.08,-150.38 479.63,-150.38 448.46,-100.39 
				417.29,-150.38 408.73,-150.38 362.58,-150.38 408.75,-75.19 362.58,0 408.82,0 417.29,0 448.46,-49.98 479.63,0 488.17,0 
				534.33,-0.01 488.17,-75.19 534.33,-150.38 			"/>
		</g>
		<g>
			<polygon style="fill:none;stroke:#FF00FF;stroke-miterlimit:10;" points="488.08,300.77 479.63,300.77 448.46,350.76 
				417.29,300.77 408.73,300.77 362.58,300.77 408.75,375.96 362.58,451.15 408.82,451.15 417.29,451.15 448.46,401.17 
				479.63,451.15 488.17,451.15 534.33,451.14 488.17,375.96 534.33,300.77 			"/>
		</g>
		<g>
			<polygon style="fill:none;stroke:#FF00FF;stroke-miterlimit:10;" points="-46.25,75.1 -54.7,75.1 -85.87,125.09 -117.04,75.1 
				-125.6,75.1 -171.75,75.1 -125.58,150.3 -171.75,225.49 -125.51,225.49 -117.04,225.49 -85.87,175.5 -54.7,225.49 -46.16,225.49 
				0,225.47 -46.16,150.3 0,75.1 			"/>
		</g>
		<g>
			<polygon style="fill:none;stroke:#FF00FF;stroke-miterlimit:10;" points="1014.59,75.1 1006.14,75.1 974.96,125.09 943.8,75.1 
				935.23,75.1 889.09,75.1 935.26,150.3 889.09,225.49 935.32,225.49 943.8,225.49 974.96,175.5 1006.14,225.49 1014.67,225.49 
				1060.83,225.47 1014.67,150.3 1060.83,75.1 			"/>
		</g>
	</g>
</g>
</svg>
